<svg width="14" height="18" viewBox="0 0 14 18" fill="none" xmlns="http://www.w3.org/2000/svg">
<path d="M11.2495 11.7432C11.0358 11.808 10.7223 11.8152 10.3861 11.7653C10.0252 11.7115 9.65706 11.5983 9.29528 11.4314C9.9404 11.3351 10.4409 11.3648 10.8691 11.5205C10.9705 11.5574 11.1371 11.6559 11.2495 11.7434V11.7432ZM7.64983 11.1357C7.62353 11.1431 7.59768 11.1499 7.57204 11.1573C7.39849 11.2059 7.22954 11.2532 7.06672 11.2952L6.84716 11.3524C6.40561 11.4671 5.9542 11.5844 5.50849 11.7239C5.67788 11.3042 5.83543 10.8801 5.98948 10.4654C6.10365 10.1585 6.22023 9.84488 6.34075 9.53528C6.40188 9.639 6.46565 9.74273 6.53205 9.84668C6.83445 10.3196 7.21486 10.757 7.64983 11.1357ZM6.52679 6.40462C6.55549 6.92235 6.44659 7.42028 6.28706 7.89818C6.0905 7.30733 5.9989 6.65505 6.24455 6.12832C6.30766 5.99333 6.35915 5.9211 6.39268 5.88352C6.4444 5.96543 6.51233 6.14902 6.52679 6.40462ZM4.22198 12.9625C4.11154 13.1654 3.9989 13.3553 3.8832 13.5346C3.60447 13.9662 3.14846 14.4281 2.91421 14.4281C2.8912 14.4281 2.86337 14.4243 2.8224 14.3802C2.7961 14.3519 2.79194 14.3316 2.79325 14.3042C2.80114 14.1455 3.00581 13.8629 3.30229 13.601C3.57138 13.3634 3.87553 13.1522 4.22176 12.9627L4.22198 12.9625ZM11.9954 11.7657C11.9597 11.2374 11.0932 10.8983 11.0847 10.8952C10.7499 10.7732 10.3861 10.7141 9.97261 10.7141C9.52997 10.7141 9.05292 10.7798 8.44001 10.9269C7.89482 10.53 7.42369 10.0332 7.07176 9.48308C6.9164 9.24008 6.7766 8.99753 6.65476 8.76038C6.95212 8.03048 7.2199 7.24568 7.17125 6.3666C7.13203 5.66167 6.82239 5.18828 6.40145 5.18828C6.11263 5.18828 5.86414 5.40788 5.66188 5.84168C5.30119 6.61455 5.39608 7.60343 5.94346 8.78333C5.74625 9.25875 5.56305 9.75173 5.38578 10.229C5.16511 10.8223 4.93788 11.4345 4.68171 12.017C3.96319 12.3089 3.37285 12.663 2.8809 13.0975C2.55856 13.3816 2.17004 13.8161 2.14791 14.2697C2.13718 14.4833 2.20839 14.6792 2.35346 14.8363C2.50751 15.003 2.701 15.0908 2.91377 15.091C3.6163 15.091 4.29254 14.0999 4.42095 13.901C4.67908 13.5014 4.92078 13.0556 5.15766 12.5415C5.75414 12.3201 6.38961 12.155 7.00559 11.9954L7.22625 11.9378C7.39213 11.8946 7.56437 11.8467 7.74121 11.797C7.92834 11.745 8.12074 11.6912 8.31642 11.6399C8.94905 12.053 9.62923 12.3224 10.2925 12.4214C10.8513 12.5048 11.3476 12.4565 11.6836 12.2767C11.9858 12.1151 12.0024 11.8656 11.9954 11.7659V11.7657ZM13.3562 16.3094C13.3562 17.2771 12.5255 17.3367 12.3581 17.3387H1.64128C0.702312 17.3387 0.645776 16.4799 0.644023 16.3094V1.69043C0.644023 0.7218 1.47606 0.663075 1.64128 0.66105H8.88068L8.88463 0.664875V3.56558C8.88463 4.14765 9.22735 5.24993 10.5255 5.24993H13.3323L13.3564 5.27467V16.3091L13.3562 16.3094ZM12.6907 4.58888H10.5255C9.58672 4.58888 9.52997 3.73478 9.52865 3.5658V1.32885L12.6907 4.58888ZM14 16.3094V5.00198L9.52887 0.39195V0.370575H9.5074L9.14824 0H1.64128C1.07352 0 0 0.353475 0 1.69065V16.3096C0 16.8941 0.343158 18 1.64128 18H12.3589C12.9265 18 14 17.6465 14 16.3094Z" fill="#EB5757"/>
</svg>
